<?xml version="1.0" encoding="utf-8"?>
<!-- Generator: Adobe Illustrator 19.1.0, SVG Export Plug-In . SVG Version: 6.00 Build 0)  -->
<svg version="1.1" id="Layer_1" xmlns="http://www.w3.org/2000/svg" xmlns:xlink="http://www.w3.org/1999/xlink" x="0px" y="0px"
	 viewBox="-934 516 50 50" style="enable-background:new -934 516 50 50;" xml:space="preserve">
<title>Combined Shape</title>
<desc>Created with Sketch.</desc>
<g>
	<path d="M-911.4,555.9l-1.8-5.3h-10.7l-1.8,5.3h-6.1l10.9-30.1h4.6l11,30.1H-911.4z M-918.4,534.7l-3.8,10.9h7.5L-918.4,534.7z"/>
	<path d="M-891.5,555.9V554c-1.5,1.5-2.9,2.1-5.4,2.1c-2.5,0-4.3-0.6-5.6-1.9c-1.2-1.2-1.8-3-1.8-4.9c0-3.5,2.4-6.4,7.5-6.4h5.2
		v-1.1c0-2.4-1.2-3.5-4.1-3.5c-2.1,0-3.1,0.5-4.2,1.8l-3.5-3.4c2.2-2.4,4.3-3,7.9-3c6.2,0,9.4,2.6,9.4,7.8v14.5H-891.5z
		 M-891.7,546.6h-4.4c-2,0-3.1,0.9-3.1,2.5c0,1.5,1,2.5,3.2,2.5c1.5,0,2.5-0.1,3.5-1.1c0.6-0.5,0.8-1.4,0.8-2.8V546.6z"/>
</g>
</svg>
