<?xml version="1.0" encoding="utf-8"?>
<!-- Generator: Adobe Illustrator 19.1.0, SVG Export Plug-In . SVG Version: 6.00 Build 0)  -->
<svg version="1.1" id="Layer_1" xmlns="http://www.w3.org/2000/svg" xmlns:xlink="http://www.w3.org/1999/xlink" x="0px" y="0px"
	 viewBox="-934 516 50 50" style="enable-background:new -934 516 50 50;" xml:space="preserve">
<title>Combined Shape</title>
<desc>Created with Sketch.</desc>
<g>
	<path d="M-918.3,555.1h-11.9v-28.4h11.4c5.6,0,8.8,3.1,8.8,8c0,3.2-2.1,5.2-3.5,5.9c1.7,0.8,3.9,2.6,3.9,6.4
		C-909.6,552.2-913.3,555.1-918.3,555.1z M-919.3,531.6h-5.4v6.5h5.4c2.4,0,3.7-1.3,3.7-3.3C-915.6,532.9-916.9,531.6-919.3,531.6z
		 M-918.9,543.2h-5.8v7h5.8c2.5,0,3.7-1.6,3.7-3.5S-916.4,543.2-918.9,543.2z"/>
	<path d="M-889.9,553.5c-1.2,1.2-3,1.9-5.1,1.9c-2.2,0-3.8-0.6-5.2-2.2v2h-5v-28.4h5.2v9.5c1.4-1.5,2.9-2.1,5-2.1
		c2,0,3.9,0.7,5.1,1.9c2.1,2.1,2.1,5.6,2.1,8.7C-887.8,547.8-887.8,551.4-889.9,553.5z M-896.5,538.7c-3.1,0-3.5,2.6-3.5,6
		c0,3.4,0.4,6,3.5,6c3.1,0,3.5-2.6,3.5-6C-892.9,541.3-893.3,538.7-896.5,538.7z"/>
</g>
</svg>
