<?xml version="1.0" encoding="utf-8"?>
<!-- Generator: Adobe Illustrator 22.0.1, SVG Export Plug-In . SVG Version: 6.00 Build 0)  -->
<svg version="1.1" id="Layer_1" xmlns="http://www.w3.org/2000/svg" xmlns:xlink="http://www.w3.org/1999/xlink" x="0px" y="0px"
	 viewBox="0 0 200 50" style="enable-background:new 0 0 200 50;" xml:space="preserve">
<style type="text/css">
	.st0{fill:#FFFFFF;}
</style>
<g>
	<path class="st0" d="M46.5,21.3v9.4h-2.2v-9.4h-3v-2h8.2v2H46.5z"/>
	<path class="st0" d="M56.8,30.7l-0.7-2h-4l-0.7,2h-2.3l4.1-11.4H55l4.2,11.4H56.8z M54.2,22.7l-1.4,4.1h2.8L54.2,22.7z"/>
	<path class="st0" d="M67.2,30.7l-2.9-5.2l-1.5,1.8v3.4h-2.2V19.3h2.2v5l4-5h2.7l-3.8,4.5l4,6.9H67.2z"/>
	<path class="st0" d="M71.2,30.7V19.3h7.5v2h-5.3V24h4.5v2h-4.5v2.8h5.3v2H71.2z"/>
	<path class="st0" d="M92.7,30.7v-6.6l-2.2,4.3H89l-2.2-4.3v6.6h-2.2V19.3h2.2l3,6.2l3-6.2h2.2v11.4H92.7z"/>
	<path class="st0" d="M97.5,30.7V19.3h7.5v2h-5.3V24h4.5v2h-4.5v2.8h5.3v2H97.5z"/>
	<path class="st0" d="M115.3,21.3v9.4h-2.2v-9.4h-3v-2h8.2v2H115.3z"/>
	<path class="st0" d="M126.2,30.7v-4.8h-3.9v4.8h-2.2V19.3h2.2V24h3.9v-4.7h2.2v11.4H126.2z"/>
	<path class="st0" d="M131,30.7V19.3h7.5v2h-5.3V24h4.5v2h-4.5v2.8h5.3v2H131z"/>
	<path class="st0" d="M146.8,30.7l-2.2-4.5h-1.6v4.5h-2.2V19.3h4.5c2.3,0,3.7,1.6,3.7,3.5c0,1.6-1,2.6-2.1,3l2.5,4.9H146.8z
		 M145,21.3h-2.1v3h2.1c1,0,1.6-0.6,1.6-1.5S146,21.3,145,21.3z"/>
	<path class="st0" d="M151.2,30.7V19.3h7.5v2h-5.3V24h4.5v2h-4.5v2.8h5.3v2H151.2z"/>
</g>
</svg>
