<?xml version="1.0" encoding="utf-8"?>
<!-- Generator: Adobe Illustrator 22.1.0, SVG Export Plug-In . SVG Version: 6.00 Build 0)  -->
<svg version="1.1" id="Layer_1" xmlns="http://www.w3.org/2000/svg" xmlns:xlink="http://www.w3.org/1999/xlink" x="0px" y="0px"
	 viewBox="0 0 50 50" style="enable-background:new 0 0 50 50;" xml:space="preserve">
<title>Combined Shape</title>
<desc>Created with Sketch.</desc>
<g>
	<path d="M9.6,23.4v-5.1H5.5v5.1H3.1V11.3h2.4v4.9h4.1v-4.9H12v12.1H9.6z"/>
	<path d="M18.4,23.4v-0.8c-0.6,0.6-1.2,0.8-2.2,0.8s-1.7-0.3-2.3-0.8c-0.5-0.5-0.7-1.2-0.7-2c0-1.4,1-2.6,3-2.6h2.1v-0.4
		c0-1-0.5-1.4-1.6-1.4c-0.8,0-1.2,0.2-1.7,0.7l-1.4-1.4c0.9-1,1.7-1.2,3.2-1.2c2.5,0,3.8,1.1,3.8,3.1v5.8h-2.2V23.4z M18.4,19.7
		h-1.7c-0.8,0-1.2,0.4-1.2,1s0.4,1,1.3,1c0.6,0,1-0.1,1.4-0.4c0.2-0.2,0.3-0.6,0.3-1.1L18.4,19.7L18.4,19.7z"/>
	<path d="M27.4,23.4v-5.3c0-1.2-0.8-1.6-1.5-1.6s-1.5,0.4-1.5,1.6v5.3h-2.2v-8.8h2.2v0.8c0.6-0.6,1.4-0.9,2.2-0.9
		c0.9,0,1.6,0.3,2.1,0.8c0.7,0.7,0.9,1.5,0.9,2.5v5.7L27.4,23.4L27.4,23.4z"/>
	<path d="M36.2,23.4v-0.8c-0.6,0.7-1.3,0.9-2.2,0.9s-1.7-0.3-2.2-0.8c-0.9-0.9-0.9-2.4-0.9-3.7s0-2.8,0.9-3.7
		c0.5-0.5,1.3-0.8,2.2-0.8s1.6,0.2,2.2,0.9v-4h2.2v12.1h-2.2V23.4z M34.7,16.5c-1.3,0-1.5,1.1-1.5,2.5s0.2,2.5,1.5,2.5
		s1.5-1.1,1.5-2.5C36.2,17.5,36,16.5,34.7,16.5z"/>
	<path d="M6,40.3c-1.4,0-2.3-0.3-3.2-1.2l1.4-1.4c0.5,0.5,1,0.7,1.7,0.7c1.3,0,1.8-0.9,1.8-1.8v-0.9c-0.6,0.6-1.2,0.9-2.1,0.9
		S4,36.3,3.5,35.8c-0.8-0.8-0.9-2-0.9-3.5s0.1-2.7,0.9-3.5C4,28.3,4.8,28,5.6,28c0.9,0,1.5,0.3,2.2,0.9v-0.8h2.1v8.5
		C9.9,38.8,8.4,40.3,6,40.3z M6.2,30c-1.3,0-1.4,1.1-1.4,2.3s0.1,2.3,1.4,2.3c1.3,0,1.5-1.1,1.5-2.3S7.5,30,6.2,30z"/>
	<path d="M14.2,37c-1.8,0-2.6-1.3-2.6-2.5v-9.6h2.2v9.4c0,0.5,0.2,0.8,0.8,0.8h0.8V37L14.2,37L14.2,37z"/>
	<path d="M22.3,36c-0.5,0.6-1.4,1.1-2.7,1.1s-2.2-0.5-2.7-1.1c-0.8-0.8-1-1.8-1-3.4c0-1.6,0.2-2.6,1-3.4c0.5-0.6,1.4-1.1,2.7-1.1
		s2.2,0.5,2.7,1.1c0.8,0.8,1,1.8,1,3.4S23.1,35.2,22.3,36z M20.6,30.4c-0.3-0.3-0.6-0.4-1-0.4s-0.8,0.1-1,0.4
		c-0.5,0.5-0.5,1.2-0.5,2.1s0.1,1.7,0.5,2.2c0.3,0.3,0.6,0.4,1,0.4s0.8-0.1,1-0.4c0.5-0.5,0.5-1.2,0.5-2.2S21,30.9,20.6,30.4z"/>
	<path d="M28.4,37h-1.7l-3.3-8.8h2.3l1.8,5.5l1.8-5.5h2.3L28.4,37z"/>
	<path d="M33.8,33.2c0,1.1,0.7,2,1.9,2c1,0,1.4-0.3,2-0.8l1.3,1.3c-0.9,0.9-1.8,1.4-3.4,1.4c-2.1,0-4.1-1-4.1-4.5
		c0-2.9,1.6-4.5,3.9-4.5c2.5,0,3.9,1.8,3.9,4.2v1h-5.5V33.2z M37,30.8c-0.2-0.5-0.7-0.9-1.5-0.9c-0.7,0-1.2,0.4-1.5,0.9
		c-0.1,0.3-0.2,0.6-0.2,1h3.4C37.2,31.3,37.1,31.1,37,30.8z"/>
	<path d="M43.6,37.1c-1.4,0-2.6-0.2-3.8-1.3l1.4-1.4c0.7,0.7,1.7,0.8,2.4,0.8c0.8,0,1.6-0.3,1.6-0.9c0-0.4-0.2-0.7-0.9-0.8l-1.4-0.1
		c-1.6-0.2-2.6-0.8-2.6-2.5c0-1.8,1.6-2.8,3.4-2.8c1.4,0,2.5,0.2,3.4,1l-1.4,1.4c-0.5-0.5-1.3-0.6-2.1-0.6c-0.9,0-1.3,0.4-1.3,0.8
		c0,0.3,0.1,0.7,0.9,0.8l1.4,0.1c1.7,0.2,2.6,1.1,2.6,2.6C47.4,36.1,45.7,37.1,43.6,37.1z"/>
</g>
</svg>
