<?xml version="1.0" encoding="utf-8"?>
<!-- Generator: Adobe Illustrator 22.1.0, SVG Export Plug-In . SVG Version: 6.00 Build 0)  -->
<svg version="1.1" id="Layer_1" xmlns="http://www.w3.org/2000/svg" xmlns:xlink="http://www.w3.org/1999/xlink" x="0px" y="0px"
	 viewBox="0 0 50 50" style="enable-background:new 0 0 50 50;" xml:space="preserve">
<g>
	<title>Combined Shape</title>
	<desc>Created with Sketch.</desc>
	<g>
		<path d="M7.7,24.4c-2,0-3.7-1.3-3.7-3.6v-5.1c0-2.3,1.7-3.6,3.7-3.6s3.7,1.3,3.7,3.6v5.1C11.4,23.1,9.7,24.4,7.7,24.4z M9.2,15.7
			c0-1-0.6-1.6-1.5-1.6s-1.5,0.6-1.5,1.6v5c0,1,0.6,1.6,1.5,1.6s1.5-0.6,1.5-1.6V15.7z"/>
		<path d="M15.9,24.3v-9.7l-2.5,2.1v-2.4l2.5-2.1h2.2v12.1L15.9,24.3L15.9,24.3z"/>
		<path d="M21.2,24.3v-2l4.5-5.2c0.4-0.5,0.6-0.9,0.6-1.5c0-0.9-0.5-1.5-1.5-1.5c-0.7,0-1.5,0.4-1.5,1.5h-2.2c0-2.2,1.6-3.5,3.7-3.5
			c2.1,0,3.7,1.3,3.7,3.5c0,1.2-0.5,1.8-1.3,2.8l-3.4,3.9h4.7v2H21.2z"/>
		<path d="M33.3,24.4c-2,0-3.8-1-3.9-3.6h2.2c0,1.1,0.8,1.6,1.6,1.6c1,0,1.6-0.6,1.6-1.7c0-1-0.6-1.7-1.7-1.7h-0.3v-1.9h0.3
			c1.1,0,1.5-0.7,1.5-1.5c0-1-0.7-1.5-1.5-1.5s-1.4,0.5-1.5,1.5h-2.2c0.1-2.2,1.7-3.4,3.7-3.4c2.1,0,3.7,1.4,3.7,3.5
			c0,1.3-0.6,2.1-1.4,2.5c0.9,0.5,1.6,1.3,1.6,2.7C37.1,23.2,35.4,24.4,33.3,24.4z"/>
		<path d="M44.8,22.5v1.7h-2.1v-1.7h-4.9v-2.1l4.1-8.3h2.4l-4.1,8.3h2.5v-2.3h2.1v2.3h1.1v2.1H44.8z"/>
		<path d="M10.4,36.9c-0.5,0.5-1.4,1-2.7,1s-2.2-0.4-2.7-1c-0.7-0.7-0.9-1.6-1-2.5h2.2c0.1,1,0.6,1.5,1.5,1.5c0.4,0,0.8-0.1,1.1-0.4
			c0.4-0.4,0.5-1,0.5-1.8c0-1.4-0.4-2.2-1.5-2.2c-0.9,0-1.3,0.5-1.5,1h-2v-6.8h6.9v2H6.3v2.6c0.3-0.3,1-0.6,1.8-0.6
			c1,0,1.8,0.3,2.3,0.8c1,1,1.1,2.1,1.1,3.2C11.5,35.1,11.3,36.1,10.4,36.9z"/>
		<path d="M16.2,37.9c-2.1,0-3.8-1.3-3.8-3.7c0-1.1,0.5-2.1,1-3.2l2.5-5.2h2.4l-2.5,5c0.3-0.1,0.6-0.2,0.9-0.2
			c1.6,0,3.2,1.3,3.2,3.6C20,36.5,18.4,37.9,16.2,37.9z M16.2,32.4c-0.9,0-1.6,0.6-1.6,1.8c0,1.1,0.7,1.8,1.6,1.8
			c0.9,0,1.6-0.6,1.6-1.8C17.8,33.1,17.2,32.4,16.2,32.4z"/>
		<path d="M24.8,37.8h-2.4l3.9-10.1h-3.2v1.9H21v-3.9h7.7v2L24.8,37.8z"/>
		<path d="M33.3,37.9c-2.1,0-3.9-1.3-3.9-3.6c0-1.5,0.8-2.3,1.5-2.7c-0.6-0.4-1.4-1.2-1.4-2.5c0-2.1,1.7-3.4,3.7-3.4
			s3.7,1.3,3.7,3.4c0,1.3-0.7,2.1-1.4,2.5c0.7,0.4,1.5,1.2,1.5,2.7C37.2,36.7,35.5,37.9,33.3,37.9z M33.3,32.6
			c-0.9,0-1.7,0.7-1.7,1.7c0,0.9,0.7,1.7,1.7,1.7s1.7-0.7,1.7-1.7S34.3,32.6,33.3,32.6z M33.3,27.6c-0.9,0-1.5,0.7-1.5,1.5
			c0,0.9,0.6,1.5,1.5,1.5s1.5-0.6,1.5-1.5C34.8,28.3,34.2,27.6,33.3,27.6z"/>
		<path d="M44.7,32.6l-2.6,5.2h-2.4l2.5-5c-0.3,0.1-0.6,0.2-0.9,0.2c-1.6,0-3.2-1.3-3.2-3.6c0-2.4,1.6-3.8,3.8-3.8
			c2.1,0,3.8,1.3,3.8,3.7C45.7,30.5,45.2,31.5,44.7,32.6z M41.9,27.6c-0.9,0-1.6,0.6-1.6,1.8c0,1.1,0.6,1.8,1.6,1.8
			c0.9,0,1.6-0.6,1.6-1.8C43.5,28.3,42.8,27.6,41.9,27.6z"/>
	</g>
</g>
</svg>
