<?xml version="1.0" encoding="utf-8"?>
<!-- Generator: Adobe Illustrator 19.1.0, SVG Export Plug-In . SVG Version: 6.00 Build 0)  -->
<svg version="1.1" id="Layer_1" xmlns="http://www.w3.org/2000/svg" xmlns:xlink="http://www.w3.org/1999/xlink" x="0px" y="0px"
	 viewBox="-934 516 50 50" style="enable-background:new -934 516 50 50;" xml:space="preserve">
<title>Combined Shape</title>
<desc>Created with Sketch.</desc>
<g>
	<path d="M-924.7,526.2l-0.5-1.5h-3l-0.5,1.5h-1.7l3.1-8.5h1.3l3.1,8.5H-924.7z M-926.7,520.2l-1.1,3.1h2.1L-926.7,520.2z"/>
	<path d="M-918.6,526.2h-3.6v-8.5h3.4c1.7,0,2.6,0.9,2.6,2.4c0,0.9-0.6,1.6-1.1,1.8c0.5,0.2,1.2,0.8,1.2,1.9
		C-916,525.3-917.1,526.2-918.6,526.2z M-918.9,519.2h-1.6v2h1.6c0.7,0,1.1-0.4,1.1-1C-917.8,519.6-918.2,519.2-918.9,519.2z
		 M-918.8,522.6h-1.7v2.1h1.7c0.8,0,1.1-0.5,1.1-1.1C-917.7,523.1-918,522.6-918.8,522.6z"/>
	<path d="M-911.7,526.3c-0.9,0-1.7-0.3-2.3-0.9c-0.4-0.4-0.6-0.8-0.7-1.3c-0.1-0.5-0.1-1.2-0.1-2.1s0-1.6,0.1-2.1
		c0.1-0.5,0.3-0.9,0.7-1.3c0.6-0.6,1.4-0.9,2.3-0.9c1.6,0,2.8,1,3.1,2.7h-1.7c-0.2-0.7-0.6-1.2-1.4-1.2c-0.5,0-0.8,0.1-1.1,0.4
		c-0.3,0.4-0.4,0.8-0.4,2.4c0,1.6,0.1,2,0.4,2.4c0.3,0.3,0.6,0.4,1.1,0.4c0.8,0,1.3-0.5,1.4-1.2h1.7
		C-908.9,525.3-910.1,526.3-911.7,526.3z"/>
	<path d="M-902.1,525.4c-0.6,0.6-1.4,0.8-2.2,0.8h-3.1v-8.5h3.1c0.9,0,1.7,0.3,2.2,0.8c1,1,0.9,2.1,0.9,3.4
		C-901.2,523.2-901.1,524.4-902.1,525.4z M-903.2,519.7c-0.3-0.3-0.7-0.5-1.2-0.5h-1.3v5.5h1.3c0.6,0,1-0.2,1.2-0.5
		c0.3-0.4,0.4-1,0.4-2.3C-902.9,520.6-902.9,520.1-903.2,519.7z"/>
	<path d="M-899.8,526.2v-8.5h5.6v1.5h-3.9v2h3.4v1.5h-3.4v2.1h3.9v1.5H-899.8z"/>
	<path d="M-927.9,528.7v2.1h3.4v1.5h-3.4v3.5h-1.7v-8.5h5.6v1.5H-927.9z"/>
	<path d="M-917.8,534.8c-0.7,0.7-1.4,1-2.4,1c-0.9,0-1.7-0.3-2.3-0.9c-0.4-0.4-0.6-0.8-0.7-1.3c-0.1-0.5-0.1-1.2-0.1-2.1
		c0-0.9,0-1.6,0.1-2.1c0.1-0.5,0.3-0.9,0.7-1.3c0.6-0.6,1.4-0.9,2.3-0.9c1.9,0,3,1.2,3.2,2.7h-1.7c-0.2-0.8-0.7-1.2-1.5-1.2
		c-0.4,0-0.8,0.2-1.1,0.5c-0.3,0.4-0.4,0.7-0.4,2.4c0,1.7,0.1,2,0.4,2.4c0.3,0.3,0.6,0.4,1.1,0.4c0.5,0,0.9-0.2,1.2-0.5
		c0.3-0.3,0.4-0.7,0.4-1.1v-0.3h-1.6V531h3.2v1.2C-916.9,533.5-917.2,534.2-917.8,534.8z"/>
	<path d="M-911.1,535.7v-3.6h-2.9v3.6h-1.7v-8.5h1.7v3.5h2.9v-3.5h1.7v8.5H-911.1z"/>
	<path d="M-907.7,535.7v-8.5h1.7v8.5H-907.7z"/>
	<path d="M-903.1,535.8c-0.9,0-1.6-0.2-2.2-0.9l1.1-1.1c0.3,0.3,0.5,0.5,1.1,0.5c0.8,0,1.3-0.5,1.3-1.5v-5.6h1.7v5.7
		C-900.1,534.8-901.5,535.8-903.1,535.8z"/>
	<path d="M-893.5,535.7l-2.2-3.9l-1.1,1.3v2.6h-1.7v-8.5h1.7v3.7l3-3.7h2l-2.8,3.4l3,5.1H-893.5z"/>
	<path d="M-929.6,545.3v-8.5h1.7v7h3.9v1.5H-929.6z"/>
	<path d="M-916.9,545.3v-5l-1.6,3.2h-1.1l-1.6-3.2v5h-1.7v-8.5h1.6l2.2,4.6l2.2-4.6h1.6v8.5H-916.9z"/>
	<path d="M-908.5,545.3l-3.4-5.2v5.2h-1.7v-8.5h1.5l3.4,5.2v-5.2h1.7v8.5H-908.5z"/>
	<path d="M-900.1,544.4c-0.6,0.6-1.3,0.9-2.3,0.9c-1,0-1.7-0.3-2.3-0.9c-0.9-0.9-0.8-1.9-0.8-3.4c0-1.5,0-2.5,0.8-3.4
		c0.6-0.6,1.3-0.9,2.3-0.9c1,0,1.7,0.3,2.3,0.9c0.9,0.9,0.8,1.9,0.8,3.4C-899.2,542.5-899.2,543.6-900.1,544.4z M-901.3,538.6
		c-0.2-0.3-0.6-0.5-1.1-0.5c-0.5,0-0.8,0.2-1.1,0.5c-0.3,0.4-0.4,0.8-0.4,2.4c0,1.6,0.1,2,0.4,2.4c0.2,0.3,0.6,0.5,1.1,0.5
		c0.5,0,0.8-0.2,1.1-0.5c0.3-0.4,0.4-0.8,0.4-2.4C-900.9,539.4-901,539-901.3,538.6z"/>
	<path d="M-894.5,542.1h-1.6v3.2h-1.7v-8.5h3.3c1.8,0,2.8,1.2,2.8,2.7C-891.7,540.9-892.7,542.1-894.5,542.1z M-894.6,538.3h-1.6
		v2.3h1.6c0.8,0,1.2-0.5,1.2-1.2S-893.8,538.3-894.6,538.3z"/>
	<path d="M-924.2,555.2l-0.8-0.8c-0.5,0.3-1.1,0.5-1.7,0.5c-1,0-1.7-0.3-2.3-0.9c-0.9-0.9-0.8-1.9-0.8-3.4c0-1.5,0-2.5,0.8-3.4
		c0.6-0.6,1.3-0.9,2.3-0.9c1,0,1.7,0.3,2.3,0.9c0.9,0.9,0.8,1.9,0.8,3.4c0,1.3,0,2.2-0.5,3l0.7,0.7L-924.2,555.2z M-925.6,548.2
		c-0.2-0.3-0.6-0.5-1.1-0.5c-0.5,0-0.8,0.2-1.1,0.5c-0.3,0.4-0.4,0.8-0.4,2.4c0,1.6,0.1,2,0.4,2.4c0.2,0.3,0.6,0.5,1.1,0.5
		c0.2,0,0.4,0,0.5-0.2l-0.7-0.7l0.9-0.9l0.6,0.6c0.1-0.4,0.2-0.9,0.2-1.7C-925.2,548.9-925.3,548.5-925.6,548.2z"/>
	<path d="M-917.6,554.8l-1.7-3.4h-1.2v3.4h-1.7v-8.5h3.3c1.7,0,2.8,1.2,2.8,2.6c0,1.2-0.7,1.9-1.6,2.2l1.9,3.7H-917.6z
		 M-918.9,547.8h-1.6v2.2h1.6c0.7,0,1.2-0.5,1.2-1.1C-917.7,548.3-918.2,547.8-918.9,547.8z"/>
	<path d="M-912.2,554.9c-1.3,0-2.3-0.3-3.1-1.1l1.1-1.1c0.5,0.5,1.3,0.7,2.1,0.7c1,0,1.5-0.4,1.5-1.1c0-0.3-0.1-0.5-0.3-0.7
		c-0.2-0.2-0.4-0.2-0.8-0.3l-1-0.1c-0.7-0.1-1.3-0.3-1.6-0.7c-0.4-0.4-0.6-1-0.6-1.7c0-1.5,1.1-2.6,3-2.6c1.2,0,2,0.3,2.7,1l-1.1,1
		c-0.5-0.5-1.2-0.6-1.7-0.6c-0.9,0-1.3,0.5-1.3,1.1c0,0.2,0.1,0.4,0.3,0.6c0.2,0.2,0.4,0.3,0.8,0.3l1,0.1c0.8,0.1,1.3,0.3,1.6,0.7
		c0.5,0.4,0.7,1,0.7,1.8C-909.1,554-910.4,554.9-912.2,554.9z"/>
	<path d="M-904.5,547.8v7h-1.7v-7h-2.2v-1.5h6.1v1.5H-904.5z"/>
	<path d="M-898.2,554.9c-1.7,0-3.1-1.2-3.1-3v-5.6h1.7v5.5c0,1,0.6,1.6,1.5,1.6s1.5-0.6,1.5-1.6v-5.5h1.6v5.6
		C-895,553.7-896.4,554.9-898.2,554.9z"/>
	<path d="M-890.3,554.8h-1.2l-2.8-8.5h1.7l1.7,5.5l1.7-5.5h1.7L-890.3,554.8z"/>
	<path d="M-922.3,564.4h-1.4l-1.6-5.2l-1.6,5.2h-1.4l-2.3-8.5h1.7l1.3,5.4l1.6-5.4h1.2l1.6,5.4l1.3-5.4h1.7L-922.3,564.4z"/>
	<path d="M-915,564.4l-1.6-3l-1.6,3h-1.9l2.6-4.4l-2.5-4.1h1.9l1.5,2.7l1.5-2.7h1.9l-2.5,4.1l2.7,4.4H-915z"/>
	<path d="M-909,560.9v3.5h-1.6v-3.5l-2.6-5h1.8l1.6,3.4l1.6-3.4h1.8L-909,560.9z"/>
	<path d="M-906.2,564.4V563l3.6-5.7h-3.5v-1.5h5.4v1.3l-3.6,5.7h3.6v1.5H-906.2z"/>
</g>
</svg>
