<?xml version="1.0" encoding="utf-8"?>
<!-- Generator: Adobe Illustrator 19.1.0, SVG Export Plug-In . SVG Version: 6.00 Build 0)  -->
<svg version="1.1" id="Layer_1" xmlns="http://www.w3.org/2000/svg" xmlns:xlink="http://www.w3.org/1999/xlink" x="0px" y="0px"
	 viewBox="-934 516 50 50" style="enable-background:new -934 516 50 50;" xml:space="preserve">
<title>Combined Shape</title>
<desc>Created with Sketch.</desc>
<g>
	<path d="M-918.4,555.5c-3,0-5.6-1-7.7-3.1c-1.2-1.2-2-2.7-2.3-4.3c-0.3-1.6-0.5-4-0.5-7.1c0-3.1,0.2-5.5,0.5-7.1
		c0.3-1.6,1.1-3,2.3-4.3c2.1-2.1,4.6-3.1,7.7-3.1c5.5,0,9.5,3.2,10.5,9h-5.6c-0.6-2.4-2.1-4-4.8-4c-1.5,0-2.7,0.5-3.6,1.5
		c-1.2,1.2-1.4,2.5-1.4,8s0.2,6.8,1.4,8c0.8,1,2,1.5,3.6,1.5c2.7,0,4.2-1.6,4.8-4h5.6C-908.9,552.3-912.9,555.5-918.4,555.5z"/>
	<path d="M-896,555.5c-4.2,0-9.3-2.2-9.3-10.7c0-8.4,5.2-10.6,9.3-10.6c2.9,0,5,0.9,6.9,2.8l-3.5,3.5c-1.1-1.2-2-1.6-3.4-1.6
		c-1.2,0-2.2,0.4-3,1.4c-0.8,1-1.2,2.4-1.2,4.6c0,2.2,0.4,3.6,1.2,4.6c0.8,0.9,1.7,1.4,3,1.4c1.4,0,2.3-0.5,3.4-1.6l3.5,3.5
		C-891,554.5-893.2,555.5-896,555.5z"/>
</g>
</svg>
