<?xml version="1.0" encoding="utf-8"?>
<!-- Generator: Adobe Illustrator 19.1.0, SVG Export Plug-In . SVG Version: 6.00 Build 0)  -->
<svg version="1.1" id="Layer_1" xmlns="http://www.w3.org/2000/svg" xmlns:xlink="http://www.w3.org/1999/xlink" x="0px" y="0px"
	 viewBox="-934 516 50 50" style="enable-background:new -934 516 50 50;" xml:space="preserve">
<title>Combined Shape</title>
<desc>Created with Sketch.</desc>
<g>
	<path d="M-929,555.1v-28.4h18.7v5h-13.2v6.7h11.2v5h-11.2v6.9h13.2v5H-929z"/>
	<path d="M-902,546.3c0,2.7,1.6,4.6,4.6,4.6c2.3,0,3.4-0.6,4.7-2l3.2,3.1c-2.1,2.1-4.2,3.3-7.9,3.3c-4.9,0-9.6-2.2-9.6-10.7
		c0-6.8,3.7-10.6,9.1-10.6c5.8,0,9.1,4.2,9.1,9.9v2.3H-902z M-894.6,540.5c-0.6-1.2-1.7-2.2-3.5-2.2s-2.9,0.9-3.5,2.2
		c-0.3,0.8-0.4,1.3-0.5,2.2h7.9C-894.1,541.8-894.2,541.3-894.6,540.5z"/>
</g>
</svg>
