<?xml version="1.0" encoding="utf-8"?>
<!-- Generator: Adobe Illustrator 19.1.0, SVG Export Plug-In . SVG Version: 6.00 Build 0)  -->
<svg version="1.1" id="Layer_1" xmlns="http://www.w3.org/2000/svg" xmlns:xlink="http://www.w3.org/1999/xlink" x="0px" y="0px"
	 viewBox="-934 516 50 50" style="enable-background:new -934 516 50 50;" xml:space="preserve">
<title>Combined Shape</title>
<desc>Created with Sketch.</desc>
<g>
	<path d="M-911.3,548.4c-2.2,2.2-4.8,3.2-8,3.2c-3,0-5.6-1-7.7-3.1c-1.2-1.2-2-2.7-2.3-4.3c-0.3-1.6-0.5-4-0.5-7.1
		c0-3.1,0.2-5.5,0.5-7.1c0.3-1.6,1.1-3,2.3-4.3c2.1-2.1,4.6-3.1,7.7-3.1c6.5,0,9.9,4.2,10.7,9.1h-5.6c-0.7-2.8-2.4-4.2-5.1-4.2
		c-1.5,0-2.7,0.5-3.6,1.5c-1,1.3-1.4,2.4-1.4,8c0,5.6,0.2,6.7,1.4,8c0.8,1,2,1.5,3.6,1.5c1.6,0,3-0.5,4-1.6c0.8-1,1.3-2.2,1.3-3.8
		v-1.1h-5.2v-4.6h10.7v4.2C-908.6,543.9-909.3,546.3-911.3,548.4z"/>
	<path d="M-897.4,559.3c-3.2,0-5.4-0.6-7.5-2.7l3.2-3.3c1.2,1.1,2.3,1.6,4.1,1.6c3.1,0,4.2-2.2,4.2-4.3v-2.1c-1.4,1.5-2.9,2.1-5,2.1
		s-3.8-0.7-5-1.8c-2-2-2.1-4.6-2.1-8.3s0.2-6.3,2.1-8.2c1.2-1.2,3-1.8,5-1.8c2.2,0,3.6,0.6,5.1,2.2v-2h5v20
		C-888.2,555.6-891.8,559.3-897.4,559.3z M-896.9,535c-3.1,0-3.4,2.6-3.4,5.4c0,2.8,0.3,5.4,3.4,5.4c3.1,0,3.4-2.7,3.4-5.4
		C-893.4,537.7-893.8,535-896.9,535z"/>
</g>
</svg>
