<?xml version="1.0" encoding="utf-8"?>
<!-- Generator: Adobe Illustrator 22.1.0, SVG Export Plug-In . SVG Version: 6.00 Build 0)  -->
<svg version="1.1" id="Layer_1" xmlns="http://www.w3.org/2000/svg" xmlns:xlink="http://www.w3.org/1999/xlink" x="0px" y="0px"
	 viewBox="0 0 50 50" style="enable-background:new 0 0 50 50;" xml:space="preserve">
<title>Combined Shape</title>
<desc>Created with Sketch.</desc>
<g>
	<path d="M5,21.2H3.4l-0.5-8.3h2.7L5,21.2z M2.9,25v-2.5h2.5V25H2.9z"/>
	<path d="M7.3,16.8v-3.9h2.3V15L7.3,16.8z M10.9,16.8v-3.9h2.3V15L10.9,16.8z"/>
	<path d="M23.1,17.9l-0.3,1.8H24v2.1h-1.5L22,25h-2.3l0.5-3.2h-2L17.7,25h-2.3l0.5-3.2h-1.2v-2.1h1.5l0.3-1.8h-1.2v-2.1h1.5l0.5-3
		h2.3l-0.5,3h2l0.5-3h2.3l-0.5,3h1.2v2.1H23.1z M18.8,17.9l-0.3,1.8h2l0.3-1.8H18.8z"/>
	<path d="M30.7,25v1.9H29v-1.8c-1.6-0.1-2.9-0.5-4-1.6l1.5-1.5c0.7,0.7,1.7,1,2.7,1v-3.1l-0.5-0.1c-1-0.1-1.8-0.5-2.3-1
		c-0.6-0.6-0.9-1.3-0.9-2.4c0-2,1.3-3.4,3.5-3.6v-1.5h1.7v1.5c1.4,0.1,2.4,0.5,3.3,1.4l-1.5,1.5c-0.6-0.5-1.4-0.8-2.1-0.8v3L31,18
		c1.1,0.2,1.8,0.5,2.3,1c0.6,0.6,0.9,1.5,0.9,2.5C34.4,23.5,32.9,24.8,30.7,25z M29.3,14.9c-1,0.1-1.5,0.7-1.5,1.5
		c0,0.3,0.1,0.6,0.4,0.9c0.3,0.3,0.6,0.4,1.1,0.5V14.9z M31.7,20.5c-0.3-0.3-0.8-0.4-1.2-0.4V23c1-0.1,1.6-0.6,1.6-1.5
		C32.1,21.1,32,20.7,31.7,20.5z"/>
	<path d="M37.9,19.2c-1.3,0-2.5-0.8-2.5-2.3v-1.7c0-1.5,1.1-2.3,2.5-2.3c1.3,0,2.5,0.8,2.5,2.3v1.7C40.3,18.4,39.2,19.2,37.9,19.2z
		 M38.7,15.2c0-0.6-0.3-1-0.9-1c-0.6,0-0.9,0.3-0.9,1v1.5c0,0.6,0.3,1,0.9,1s0.9-0.3,0.9-1V15.2z M39.7,25H38l5.7-12.1h1.7L39.7,25z
		 M45.6,25.1c-1.3,0-2.5-0.8-2.5-2.3v-1.7c0-1.5,1.1-2.3,2.5-2.3c1.3,0,2.5,0.8,2.5,2.3v1.7C48,24.3,46.9,25.1,45.6,25.1z
		 M46.4,21.2c0-0.6-0.3-1-0.9-1c-0.6,0-0.9,0.3-0.9,1v1.5c0,0.6,0.3,1,0.9,1c0.5,0,0.9-0.3,0.9-1V21.2z"/>
	<path d="M10,38.6l-0.9-1.1c-0.6,0.4-1.4,1.2-3.1,1.2c-2.7,0-4-1.4-4-3.7c0-1.5,1.1-2.5,2.2-3.2C3.7,31.2,3,30.4,3,29.2
		c0-1.6,1.2-2.8,3.2-2.8c1.9,0,3.1,1.2,3.1,2.9c0,0.9-0.5,1.6-1.2,2.1c0,0-0.6,0.4-0.9,0.6l2,2.4c0.4-0.5,0.6-1.3,0.6-2.1h2.1
		c-0.1,1.6-0.4,2.8-1.3,3.8l2.2,2.6H10V38.6z M5.3,33.1c-0.7,0.5-1.2,1-1.2,1.8c0,1,0.8,1.7,1.8,1.7c0.7,0,1.2-0.2,1.8-0.7L5.3,33.1
		z M6.2,28.3c-0.7,0-1,0.4-1,1c0,0.4,0.4,0.9,0.8,1.4c0.2-0.1,0.5-0.3,0.5-0.3c0.4-0.3,0.7-0.6,0.7-1C7.2,28.7,6.8,28.3,6.2,28.3z"
		/>
	<path d="M19.9,31.9l-1.3,1.7c-0.2,0.2-0.3,0.6-0.3,0.9v0.4h-2.2v-0.5c0-0.7,0.2-1.2,0.6-1.8L18,31c0.3-0.4,0.5-0.8,0.5-1.1
		c0-0.8-0.5-1.4-1.4-1.4s-1.4,0.6-1.4,1.4h-2.2c0-2.1,1.6-3.4,3.6-3.4c1.9,0,3.6,1.2,3.6,3.4C20.8,30.6,20.4,31.3,19.9,31.9z
		 M16.1,38.6v-2.3h2.3v2.3H16.1z"/>
	<path d="M26.3,34.9v2.7h-2.1v-2.7h-2.7v-2.1h2.7v-2.7h2.1v2.7H29v2.1H26.3z"/>
	<path d="M30.1,32.9v-2.1h7.5v2.1H30.1z M30.1,36.6v-2.1h7.5v2.1H30.1z"/>
</g>
</svg>
